<?xml version="1.0" standalone="no"?>
<!DOCTYPE svg PUBLIC "-//W3C//DTD SVG 20010904//EN"
 "http://www.w3.org/TR/2001/REC-SVG-20010904/DTD/svg10.dtd">
<svg version="1.0" xmlns="http://www.w3.org/2000/svg"
 width="94.000000pt" height="94.000000pt" viewBox="0 0 94.000000 94.000000"
 preserveAspectRatio="xMidYMid meet">

<g transform="translate(0.000000,94.000000) scale(0.100000,-0.100000)"
fill="#000000" stroke="none">
<path d="M376 835 c-51 -20 -134 -84 -198 -154 -82 -89 -108 -172 -89 -276 23
-126 88 -219 190 -274 70 -37 87 -39 95 -9 13 49 8 56 -41 64 -36 5 -55 15
-73 36 -14 17 -35 41 -47 54 -24 26 -30 44 -14 44 7 0 24 -11 98 -66 29 -21
79 -11 87 18 6 26 0 38 -21 38 -9 0 -37 10 -61 21 -76 37 -104 141 -62 224 15
29 19 51 15 80 -3 22 -1 47 4 55 9 13 16 13 58 -3 66 -25 233 -26 297 -2 66
25 80 16 73 -46 -5 -39 -2 -57 13 -82 24 -38 26 -113 6 -162 -16 -39 -48 -62
-108 -80 -24 -7 -43 -16 -43 -21 5 -91 20 -187 30 -190 21 -9 114 44 162 92
81 81 124 218 104 327 -34 184 -181 316 -360 324 -50 2 -89 -2 -115 -12z"/>
</g>
</svg>
