<?xml version="1.0" standalone="no"?>
<!DOCTYPE svg PUBLIC "-//W3C//DTD SVG 20010904//EN"
 "http://www.w3.org/TR/2001/REC-SVG-20010904/DTD/svg10.dtd">
<svg version="1.0" xmlns="http://www.w3.org/2000/svg"
 width="48.000000pt" height="48.000000pt" viewBox="0 0 48.000000 48.000000"
 preserveAspectRatio="xMidYMid meet">

<g transform="translate(0.000000,48.000000) scale(0.100000,-0.100000)"
fill="#000000" stroke="none">
<path d="M187 426 c-117 -31 -176 -168 -121 -277 28 -55 113 -109 174 -109 61
0 146 54 174 109 53 105 -9 254 -115 276 -19 3 -41 8 -49 10 -8 2 -37 -2 -63
-9z m55 -165 c87 -111 86 -142 -1 -43 l-51 57 0 -57 c0 -45 -3 -58 -15 -58
-12 0 -15 16 -15 80 0 71 2 80 18 80 11 0 38 -25 64 -59z m78 24 c0 -24 -5
-35 -15 -35 -10 0 -15 11 -15 35 0 24 5 35 15 35 10 0 15 -11 15 -35z"/>
</g>
</svg>
