<?xml version="1.0" standalone="no"?>
<!DOCTYPE svg PUBLIC "-//W3C//DTD SVG 20010904//EN"
 "http://www.w3.org/TR/2001/REC-SVG-20010904/DTD/svg10.dtd">
<svg version="1.0" xmlns="http://www.w3.org/2000/svg"
 width="275.000000pt" height="183.000000pt" viewBox="0 0 275.000000 183.000000"
 preserveAspectRatio="xMidYMid meet">

<g transform="translate(0.000000,183.000000) scale(0.100000,-0.100000)"
fill="#000000" stroke="none">
<path d="M0 1525 l0 -305 1375 0 1375 0 0 305 0 305 -1375 0 -1375 0 0 -305z"/>
<path d="M1349 1143 c-1 -5 -1 -16 0 -25 1 -10 -3 -18 -8 -18 -6 0 -11 -7 -11
-15 0 -8 -7 -15 -15 -15 -25 0 -30 4 -27 20 2 9 -5 5 -17 -9 -14 -16 -19 -31
-15 -44 3 -11 1 -23 -6 -27 -10 -6 -11 -42 -5 -154 4 -80 11 -146 16 -146 4 0
10 35 12 78 l3 77 2 -82 c1 -46 6 -83 12 -83 5 0 11 37 13 83 l3 82 2 -82 c1
-47 6 -83 12 -83 6 0 11 36 12 83 l2 82 3 -78 c5 -95 22 -94 24 1 l2 67 6 -56
c7 -67 31 -99 73 -99 58 0 68 14 68 90 l0 70 -70 0 -71 0 3 73 3 72 57 3 c50
3 57 5 62 28 8 32 -1 47 -21 35 -21 -11 -53 -2 -53 16 0 8 -5 11 -11 7 -8 -5
-10 1 -7 19 3 16 1 24 -7 21 -6 -3 -10 -17 -7 -33 3 -24 11 -31 47 -41 28 -8
42 -17 39 -25 -3 -7 -13 -12 -22 -10 -9 2 -27 4 -39 4 -13 1 -23 7 -23 16 0 8
-7 15 -15 15 -8 0 -15 -7 -15 -15 0 -9 -9 -15 -22 -16 -13 0 -32 -2 -44 -4
-41 -8 -21 23 23 35 41 12 43 14 43 51 0 22 -2 39 -5 39 -3 0 -6 -3 -6 -7z
m-28 -182 c7 11 9 11 9 -3 0 -10 -7 -18 -16 -18 -14 0 -14 -1 0 -16 9 -8 16
-23 16 -32 0 -15 -2 -15 -11 -2 -8 11 -12 12 -16 3 -11 -29 -30 -12 -27 25 2
20 3 42 4 47 0 6 5 3 10 -5 8 -12 10 -10 11 10 l2 25 4 -24 c4 -19 7 -21 14
-10z m171 -143 c-5 -19 -7 -20 -10 -5 -2 9 -10 17 -18 17 -25 0 -11 -33 16
-41 23 -7 24 -7 3 -8 -16 -1 -21 -5 -16 -17 4 -12 7 -13 14 -3 4 8 11 10 15 7
3 -4 -5 -18 -19 -32 -45 -45 -90 -12 -85 64 l2 40 52 0 c49 0 52 -1 46 -22z"/>
<path d="M1403 815 c-3 -9 -3 -18 0 -22 10 -10 37 6 37 22 0 20 -29 20 -37 0z"/>
<path d="M1404 768 c5 -36 31 -50 39 -20 4 16 5 16 6 0 0 -10 6 -18 11 -18 17
0 11 18 -12 34 -27 19 -47 21 -44 4z"/>
<path d="M1230 1123 c0 -4 5 -15 10 -23 8 -13 10 -13 10 2 0 9 -4 20 -10 23
-5 3 -10 3 -10 -2z"/>
<path d="M1267 1119 c7 -7 15 -10 18 -7 3 3 -2 9 -12 12 -14 6 -15 5 -6 -5z"/>
<path d="M1470 1120 c-9 -6 -10 -10 -3 -10 6 0 15 5 18 10 8 12 4 12 -15 0z"/>
<path d="M1507 1123 c-4 -3 -7 -13 -7 -22 1 -13 3 -13 11 2 11 19 8 33 -4 20z"/>
<path d="M1311 1104 c0 -11 3 -14 6 -6 3 7 2 16 -1 19 -3 4 -6 -2 -5 -13z"/>
<path d="M1431 1104 c0 -11 3 -14 6 -6 3 7 2 16 -1 19 -3 4 -6 -2 -5 -13z"/>
<path d="M1442 983 c-6 -2 -10 -9 -6 -14 8 -13 -10 -11 -24 3 -7 7 -12 8 -12
2 0 -5 5 -15 12 -22 9 -9 9 -12 0 -12 -7 0 -12 -4 -12 -9 0 -5 10 -7 23 -4 18
5 20 3 10 -8 -19 -20 -16 -32 7 -26 14 3 20 0 20 -11 0 -18 10 -11 14 10 1 7
5 19 10 26 4 7 5 16 2 19 -3 4 -6 1 -6 -5 0 -7 -5 -12 -11 -12 -6 0 -8 13 -5
35 6 35 3 38 -22 28z"/>
<path d="M1516 908 c3 -5 10 -6 15 -3 13 9 11 12 -6 12 -8 0 -12 -4 -9 -9z"/>
<path d="M1188 713 c7 -3 16 -2 19 1 4 3 -2 6 -13 5 -11 0 -14 -3 -6 -6z"/>
<path d="M1558 713 c6 -2 18 -2 25 0 6 3 1 5 -13 5 -14 0 -19 -2 -12 -5z"/>
<path d="M0 305 l0 -305 1375 0 1375 0 0 305 0 305 -1375 0 -1375 0 0 -305z"/>
</g>
</svg>
